<?xml version="1.0" encoding="UTF-8"?>
<svg id="Layer_2" xmlns="http://www.w3.org/2000/svg" xmlns:xlink="http://www.w3.org/1999/xlink" viewBox="0 0 2056.52 1109.83">
  <defs>
    <style>
      .cls-1 {
        fill: url(#linear-gradient-8);
      }

      .cls-2 {
        fill: url(#linear-gradient-7);
      }

      .cls-3 {
        fill: url(#linear-gradient-5);
      }

      .cls-4 {
        fill: url(#linear-gradient-6);
      }

      .cls-5 {
        fill: url(#linear-gradient-9);
      }

      .cls-6 {
        fill: url(#linear-gradient-4);
      }

      .cls-7 {
        fill: url(#linear-gradient-3);
      }

      .cls-8 {
        fill: url(#linear-gradient-2);
      }

      .cls-9 {
        fill: url(#linear-gradient);
      }

      .cls-10 {
        fill: url(#linear-gradient-10);
      }

      .cls-11 {
        fill: url(#linear-gradient-11);
      }

      .cls-12 {
        fill: url(#linear-gradient-12);
      }

      .cls-13 {
        fill: url(#linear-gradient-13);
      }

      .cls-14 {
        fill: url(#linear-gradient-14);
      }
    </style>
    <linearGradient id="linear-gradient" x1="948.57" y1="690.28" x2="1509.24" y2="1210.17" gradientTransform="translate(216.92 -240.52)" gradientUnits="userSpaceOnUse">
      <stop offset="0" stop-color="#f37021"/>
      <stop offset="1" stop-color="#db4026"/>
    </linearGradient>
    <linearGradient id="linear-gradient-2" x1="1067.38" y1="562.09" x2="1628.04" y2="1081.97" xlink:href="#linear-gradient"/>
    <linearGradient id="linear-gradient-3" x1="1239.46" y1="376.51" x2="1800.23" y2="896.5" xlink:href="#linear-gradient"/>
    <linearGradient id="linear-gradient-4" x1="934.97" y1="704.94" x2="1495.61" y2="1224.82" xlink:href="#linear-gradient"/>
    <linearGradient id="linear-gradient-5" x1="997.92" y1="636.98" x2="1558.69" y2="1156.96" xlink:href="#linear-gradient"/>
    <linearGradient id="linear-gradient-6" x1="1260.12" y1="354.27" x2="1820.78" y2="874.15" xlink:href="#linear-gradient"/>
    <linearGradient id="linear-gradient-7" x1="1233.47" y1="382.94" x2="1794.25" y2="902.94" xlink:href="#linear-gradient"/>
    <linearGradient id="linear-gradient-8" x1="1083.64" y1="544.57" x2="1644.35" y2="1064.5" xlink:href="#linear-gradient"/>
    <linearGradient id="linear-gradient-9" x1="-323.81" y1="264.2" x2="786.02" y2="264.2" gradientTransform="translate(698.75 786.02) rotate(-90)" gradientUnits="userSpaceOnUse">
      <stop offset="0" stop-color="#f8991d"/>
      <stop offset="1" stop-color="#ed6d23"/>
    </linearGradient>
    <linearGradient id="linear-gradient-10" x1="-323.77" y1="265.36" x2="350.33" y2="265.36" xlink:href="#linear-gradient-9"/>
    <linearGradient id="linear-gradient-11" x1="-323.77" y1="792.42" x2="-113.59" y2="792.42" xlink:href="#linear-gradient-9"/>
    <linearGradient id="linear-gradient-12" x1="-191.38" y1="171.55" x2="-28.02" y2="171.55" xlink:href="#linear-gradient-9"/>
    <linearGradient id="linear-gradient-13" x1="352.61" y1="-41.62" x2="520.78" y2="-41.62" xlink:href="#linear-gradient-9"/>
    <linearGradient id="linear-gradient-14" x1="627.93" y1="653.61" y2="653.61" xlink:href="#linear-gradient-9"/>
  </defs>
  <g id="Layer_1-2" data-name="Layer_1">
    <g>
      <path class="cls-9" d="M1378.82,531.29c33.57,24.15,59.03,83.46,85.51,145.84,39.44,93.25,84.16,198.06,173.82,241.06-.47,0-.93,0-1.49-.1-122.58-7.65-227.44-96.89-257.09-216.15-11.98-48.12-14.59-104.72-.75-170.65Z"/>
      <path class="cls-8" d="M1390.9,393.94c-4.89,10.07-9.46,20.79-14.03,32.26-40.14-13.05-70.78-22.47-91.66-28.72,12.03-36.83,29.7-71.06,51.52-102.39.37,12.68,1.96,25.46,5.87,38.14,8.21,25.46,24.53,45.97,48.3,60.71Z"/>
      <path class="cls-7" d="M1758.58,138.8c-35.25,0-70.78,4.57-104.76,14.08-76.33,21.82-176.15,76.28-248.56,211.68-15.66-10.72-26.11-24.15-31.33-41.12-8.11-25.46-3.91-53.81,2.28-75.72v-.28c62.67-64.9,147.76-108.92,244.41-118.71,13.33-1.68,26.67-2.33,40.1-2.33,33.62,0,66.53,4.29,97.86,12.4Z"/>
      <path class="cls-6" d="M1396.12,817.67c-68.82-60.99-113.86-144.17-127.24-237.79,8.49-20.52,21.82-42.34,40.42-53.81,11.42-6.81,24.52-9.14,38.88-6.53-28.77,130.18,3.26,228.37,47.93,298.12Z"/>
      <path class="cls-3" d="M1264.59,522.53c0-32.36,3.92-63.69,11.47-93.71,20.52,6.15,50.59,15.29,89.75,27.69-3.91,10.44-7.18,20.89-10.16,31.05-23.13-4.57-44.39-.93-63.27,10.45-10.82,6.53-19.96,15.01-27.79,24.52Z"/>
      <path class="cls-4" d="M1588.59,323.44c-60.33,27.79-117.73,54.18-152.32,52.87,66.86-123,157.22-172.61,226.41-192.19,38.7-10.91,79.4-14.64,119.13-11.84,63.08,4.29,123.32,32.08,166.03,78.7.23.28.42.47.6.65-116.42-40.75-252.52,22.19-359.85,71.8Z"/>
      <path class="cls-2" d="M2028.73,668c-273.08-112.93-487.14-187.99-620.53-231.73,3.92-10.07,8.11-19.86,12.4-29h.28c5.87,1.03,11.75,1.68,18,1.68,42.06,0,97.49-25.46,163.42-55.77,127.94-59.12,283.2-130.92,397.38-34.31.28,0,.28.37.28.37.37,0,.37.28.37.28,29.05,48.3,48.26,103.41,54.13,163.09,6.53,63.69-2.61,127.29-25.74,185.38Z"/>
      <path class="cls-1" d="M2015.67,698.02c-23.83,47.56-56.79,90.92-98.57,126.54-3.26,2.89-7.18,5.87-11.38,8.86-37.21,29.28-78.66,51.57-123.04,65.92q0,.28-.28,0c-42.43,9.04-79.59,8.12-112.55-3.26-90.73-31.43-135.72-137.73-175.54-231.73-32.31-75.34-60.01-141.18-107.33-166.36,2.94-10.16,6.2-20.61,9.79-31.33,132.42,43.46,345.82,118.43,618.9,231.35Z"/>
      <path class="cls-5" d="M1793.11,80.73c-57.07-17.3-117.77-23.5-178.76-17.3-89.05,9.14-170,43.04-235.83,94.65-87.47,68.17-149.2,166.68-170.65,277.61-8.49,43.03-10.82,87.42-6.25,133.16,26.11,253.13,253.17,438.14,506.07,412.31,79.26-8.11,154.61-36.51,218.2-81.55-136.7,153.02-402.84,312.53-870.4,125.66,0,0,189.86,29.65,247.58-38.51,58.1-67.93-49.24-203.94-201.89-122.72-152.37,81.27-409.46,202.96-602.96,10.45,12.03,4.61,170.93,62.71,272.48-20.19,105.28-86.16,18.93-219.93-118.15-190.56-136.71,29.7-456.09,137.36-651.54-167.66-.65-.65-.65-1.03-1.03-1.31,14.45,9.79,243.1,169.62,413.75,90.69,175.87-81.22,68.17-298.82-155.26-152.05,6.16-12.4,136.05-257.42,422.14-133.07,169.62,73.71,299.52,97.21,375.15,69.42.37-.28.65-.28.65-.28,38.89-14.36,63.32-41.78,71.43-83.23,17.72-88.08-87.1-168.04-216.25-162.82,0,0,501.41-246.6,881.49-42.71Z"/>
      <path class="cls-10" d="M1207.87,435.69c-8.49,43.03-10.82,87.42-6.25,133.16,24.43,237.46,225.39,414.64,459.07,414.64,15.29,0,31.33-.65,47-2.33,79.26-8.11,154.61-36.51,218.2-81.55-136.7,153.02-402.56,312.25-869.47,125.93,15.67,2.33,191.53,26.44,246.65-38.79,35.9-41.78,8.86-109.66-53.15-136.43,0,0-2.61-1.3-7.55-3.26-37.49-13.33-86.35-12.03-141.18,16.97-152.37,81.27-409.46,202.96-602.96,10.45,12.03,4.61,170.93,62.71,272.48-20.19,105.28-86.16,18.93-219.93-118.15-190.56-136.43,29.7-454.78,137.03-650.24-166.03,23.13,27.42,199.65,216.25,579.74,87.75,125.98-42.76,365.08-106.73,625.8-149.76Z"/>
      <path class="cls-11" d="M1925.9,899.61c-136.7,153.02-402.56,312.25-869.47,125.93,18.93,5.87,286.19,85.19,604.26-42.06,15.29,0,31.33-.65,47-2.33,79.26-8.11,154.61-36.51,218.2-81.55Z"/>
      <path class="cls-12" d="M1242.37,847.06c-37.49-13.33-86.35-12.03-141.18,16.97-152.37,81.27-409.46,202.96-602.96,10.45,149.48,89.43,286.84,57.49,435.85-24.15,130.18-71.43,274.43-17.9,308.28-3.26Z"/>
      <path class="cls-13" d="M680.63,300.34c169.62,73.71,299.52,97.21,375.15,69.42-6.53,4.94-79.54,53.2-287.02,25.83-218.3-28.44-346.52-99.55-510.27,37.81,6.16-12.4,136.05-257.42,422.14-133.07Z"/>
      <path class="cls-14" d="M1793.11,80.73c-57.07-17.3-117.77-23.5-178.76-17.3-89.05,9.14-170,43.04-235.83,94.65-243.38-71.48-466.9-34.64-466.9-34.64,0,0,501.41-246.6,881.49-42.71Z"/>
    </g>
  </g>
</svg>