<?xml version="1.0" encoding="UTF-8"?>
<svg id="Layer_2" xmlns="http://www.w3.org/2000/svg" viewBox="0 0 81.16 129.78">
  <defs>
    <style>
      .cls-1 {
        fill: #f89621;
        fill-rule: evenodd;
      }
    </style>
  </defs>
  <g id="Layer_1-2" data-name="Layer_1">
    <path class="cls-1" d="M42.34,129.78c7.06-.3,13.66-2.41,19.34-5.87-3.78-1.47-6.87-4.01-8.62-7.93-3.48,1.07-7.08,1.69-10.72,1.84v11.96h0ZM19.3,37.11c-.95,3-.22,9.14,4.39,8.46,4.55-.67,3.4-7.85.97-12.36-3.54-6.55-2.39-14.56,1.66-18.09,0,0-2.06,8.61,4.93,7.31,6.51-1.21-2.37-16.25,7.57-22.43v52.24c-5.05.31-5.56-8.84-5.56-8.84-4.25,6.94,3.85,20.69-1.46,21.84-5.3,1.14-6.14-5.93-6.14-5.93-1.25,4.99-1.66,12.06,5.62,27.04,7.28,14.98,7.53,27.94,7.53,27.94-3.27-.15-6.51-.7-9.64-1.66.04-.2.08-.39.11-.59.24-1.36.26-2.72.06-4.08-.32-2.17-1.17-4.2-2.22-6.12-1.16-2.13-2.56-4.16-3.92-6.17-1.77-2.61-3.5-5.2-5.02-7.96-1.77-3.22-3.21-6.56-4.22-10.1-3.35-11.67-2.26-31,5.33-40.5h0ZM61.86,37.11c.95,3,.22,9.14-4.39,8.46-4.55-.67-3.4-7.85-.96-12.36,3.54-6.55,2.39-14.56-1.66-18.09,0,0,2.06,8.61-4.93,7.31-6.51-1.21,2.37-16.25-7.56-22.43v52.24c5.05.31,5.56-8.84,5.56-8.84,4.25,6.94-3.85,20.69,1.45,21.84,5.3,1.14,6.14-5.93,6.14-5.93,1.25,4.99,1.66,12.06-5.62,27.04-7.28,14.98-7.53,27.94-7.53,27.94,3.27-.15,6.51-.7,9.64-1.66-.04-.2-.08-.39-.11-.59-.24-1.36-.26-2.72-.06-4.08.32-2.17,1.17-4.2,2.22-6.12,1.16-2.13,2.56-4.16,3.92-6.17,1.77-2.61,3.5-5.2,5.02-7.96,1.77-3.22,3.21-6.56,4.22-10.1,3.37-11.76,2.3-30.96-5.33-40.5h0ZM65.36,121.38c-3.87-.93-7.23-2.91-8.97-6.57,5.29-2.13,10.1-5.32,14.13-9.35,5.01-5,8.61-11.09,10.61-17.72.02.5.03,1,.03,1.51,0,13.08-6.19,24.71-15.8,32.13h0ZM79.36,77.26c-.43,9.69-4.44,18.82-11.33,25.71-3.63,3.63-7.94,6.51-12.69,8.46-.14-.78-.17-1.57-.1-2.36.17-1.9.91-3.71,1.8-5.38,1.11-2.09,2.5-4.09,3.83-6.05,1.78-2.63,3.53-5.25,5.08-8.02,1.83-3.28,3.33-6.68,4.43-10.28,1.5-4.93,2.17-9.97,2.21-15.03,2.99,3.83,5.3,8.2,6.77,12.95h0ZM8.57,64.31c-2.99,3.83-5.3,8.2-6.77,12.95.43,9.69,4.44,18.82,11.33,25.71,3.63,3.63,7.95,6.51,12.69,8.46.14-.78.17-1.57.1-2.36-.17-1.9-.91-3.71-1.8-5.38-1.11-2.09-2.5-4.09-3.83-6.05-1.78-2.63-3.53-5.25-5.08-8.02-1.83-3.28-3.33-6.68-4.43-10.28-1.5-4.93-2.17-9.97-2.21-15.03h0ZM.03,87.74c-.02.5-.03,1-.03,1.51,0,13.08,6.19,24.71,15.8,32.13,3.87-.93,7.23-2.91,8.97-6.57-5.29-2.13-10.1-5.32-14.13-9.35C5.63,100.45,2.02,94.36.03,87.74H.03ZM19.48,123.91c3.78-1.47,6.87-4.01,8.62-7.93,3.48,1.07,7.08,1.69,10.72,1.84v11.96c-7.06-.3-13.66-2.41-19.34-5.87Z"/>
  </g>
</svg>