<?xml version="1.0" encoding="UTF-8"?>
<svg xmlns="http://www.w3.org/2000/svg" xmlns:xlink="http://www.w3.org/1999/xlink" version="1.1" viewBox="0 0 104 22.5">
  <defs>
    <style>
      .cls-1 {
        fill: url(#linear-gradient-2);
      }

      .cls-2 {
        fill: #00438c;
      }

      .cls-3 {
        fill: url(#linear-gradient);
      }

      .cls-4 {
        fill: #da1a32;
      }

      .cls-5 {
        fill: #fff;
      }
    </style>
    <linearGradient id="linear-gradient" x1="46.3" y1="-2504.3" x2="46.3" y2="-2526.6" gradientTransform="translate(0 -2504.3) scale(1 -1)" gradientUnits="userSpaceOnUse">
      <stop offset="0" stop-color="#fff"/>
      <stop offset="0" stop-color="#ed1e28"/>
      <stop offset=".3" stop-color="#ea1e28"/>
      <stop offset=".5" stop-color="#e21e28"/>
      <stop offset=".7" stop-color="#d41e28"/>
      <stop offset=".9" stop-color="#c01e28"/>
      <stop offset="1" stop-color="#a61e28"/>
      <stop offset="1" stop-color="#a41e28"/>
      <stop offset="1" stop-color="#000"/>
    </linearGradient>
    <linearGradient id="linear-gradient-2" x1="23.4" y1="1794" x2="23.4" y2="1816.3" gradientTransform="translate(0 -1793.9)" gradientUnits="userSpaceOnUse">
      <stop offset="0" stop-color="#fff"/>
      <stop offset="0" stop-color="#ed1e28"/>
      <stop offset=".3" stop-color="#ea1e28"/>
      <stop offset=".5" stop-color="#e21e28"/>
      <stop offset=".7" stop-color="#d41e28"/>
      <stop offset=".9" stop-color="#c01e28"/>
      <stop offset="1" stop-color="#a61e28"/>
      <stop offset="1" stop-color="#a41e28"/>
      <stop offset="1" stop-color="#000"/>
    </linearGradient>
  </defs>
  <!-- Generator: Adobe Illustrator 28.7.1, SVG Export Plug-In . SVG Version: 1.2.0 Build 142)  -->
  <g>
    <g id="Layer_2">
      <g id="Layer_2-2">
        <g id="Layer_1-2">
          <path class="cls-5" d="M7.6,0H2.3C1,0,0,1.1,0,2.3v17.8c0,1.3,1,2.3,2.3,2.3h5.2c1.3,0,2.3-1,2.3-2.3V2.3c0-1.3-1-2.3-2.3-2.3"/>
          <path class="cls-4" d="M6.3,4.1h0c.2.2.2.2.4.3.4.3,1,.8.9,2.4.1.4.2,1.1.3,1.3.2.4.4.7.4,1.1,0,0,0,.6.1.7.4.1.3.1.4.2,0,0,.3,0,.3.3,0,.1.1.2.2.4V2.3c0-1-.8-1.8-1.8-1.8h-1.7c.3.1.4.2.5.4.2,0,.5.5,0,1.2.2.1,0,.3,0,.5,0,0,0,.2-.2.2-.2.3-.3.6-.5.7,0,0,0,.2,0,.3.2,0,.4.2.6.3M9.3,12.1c-.3.8-1.2,1.2-2.1.9-.8-.3-1.2-1.2-.9-2.1.2-.5.6-.8,1.1-.9-.2-.5-.6-1.2-.7-1.4-.1-.2-.4-1.7-.4-2,0,0-.7.4-.7.4s-.5,1.2-.5,1.3c0,0,0,.2,0,.2,0,0,.2,0,.4.4.1.4.5,1.8.5,1.8h-.1c.5,1.8.3,2.5.6,3,.3.7.4.6.6,1.2.2.4.4,2.1.4,2.2.3.3.4.6.4.8s-.2.8-.2,1.1c0,.2,0,.6.2.7,0,0,0,.2,0,.2,0,0,0,0,0,0,.2.5.6,1.4-.2,1.9h0c.9-.1,1.5-.9,1.5-1.8v-8h0Z"/>
          <path class="cls-2" d="M7.3,19.8c-.3-.2,0-.4-.1-.5-.2-.8-.8-1.2-.5-1.5,0-.3-.2-.6-.2-.6-1-.5-1.8-1.4-1.9-1.6s-.5-.4-.5-.5c-.2-.2-1.4-1.8-1.6-2.4h-.5c-.2-.9-.9-1.6-.9-2.5,0-.3.1-1,.2-1.2,0-.1.3-.4.3-.4v-.2c-1,0-.7,0-.9-.5-.1-.3,0-.3,0-.5.1-.6.6-1.4.8-1.8,0-.2.2-.7.2-.7.8-1.5,1-1.4,1.9-1.5h0c.9-.1.8-.2.9-1-.1,0-.2-.3-.2-.3,0-.5.1-.4.2-.4,0-.8.1-1,.7-1.3h-3c-1,0-1.8.8-1.8,1.8v17.8c0,1,.8,1.8,1.8,1.8h5.2c-.6-.3-.2-.9-.2-2.1h0Z"/>
          <path class="cls-5" d="M3.3,20.8v-3.2h.6c.4,0,.6.2.6.6v.5c0,.3,0,.4-.2.5.1,0,.2.2.2.5v.5c0,.4-.2.6-.6.6,0,0-.6,0-.6,0ZM3.7,19.4v1h.2c.2,0,.2,0,.2-.2v-.5c0-.2,0-.2-.2-.2h-.2ZM3.7,17.9v1.1h.2c.2,0,.2,0,.2-.2v-.6c0-.1,0-.2-.2-.2h-.2ZM5.5,20.1h-.4v.6h-.5l.4-3.2h.6l.4,3.2h-.4v-.6ZM5.3,17.9h0c0,.4,0,1.1,0,1.3v.5c0,0,.3,0,.3,0v-.5c0-.2-.1-.9-.2-1.3M2,20.8h-.4v-3.2h.6l.5,2.6c0-.6,0-1.4,0-2v-.6h.4v3.2h-.5l-.5-2.6c0,.6,0,1.1,0,1.6v1h0Z"/>
          <path class="cls-3" d="M37.8.3c0,0,.2-.2.3-.2h7.4c0,0,.2.1.2.3h0c0,0-1.1,5.5-1.1,5.5,0,0,0,.2.2.2.1,0,.2,0,.3,0L49.9.2c0-.1,0-.1.2-.1h8.7c.2,0,.3.1.3.3,0,0,0,.1,0,.2l-9.2,10.3c0,0,0,.1,0,.2l5,11c0,0,0,.3,0,.3h-8.3c0,0-.1,0-.2-.1l-3-6.2c0-.1-.2-.2-.3-.1,0,0,0,.1,0,.2l-1.3,6.1c0,.1,0,.2-.3.2h-7.4c-.2,0-.3-.1-.3-.3h0c0-.1,4.4-21.9,4.4-21.9Z"/>
          <path class="cls-1" d="M32,22.4c0,0,.2-.1.3-.2l1.3-6.2c0-.1,0-.3-.2-.3h-8c-.2,0-.3-.1-.3-.3,0,0,0-.1.1-.2l7.5-3.7c1.3-.5,2.2-1.6,2.4-3l1.1-5.3c.5-1.6,0-3.2-2.2-3.2h-16.2c-1.8,0-3.4,1.4-3.6,3.2l-1.1,5c0,.1.1.3.2.3h6.7c.1,0,.2-.1.3-.2l.5-1.7c0,0,.1-.2.3-.2h7.3c.2,0,.3.1.3.3h0c0,0-.3.8-.3.8,0,0-.1,0-.1.2l-16.4,9.3c-.1,0-.1.1-.1.2l-1.3,4.9c0,.1,0,.3.2.3h21.4Z"/>
          <path class="cls-5" d="M77.6,22.4c0,0,.2-.1.3-.2l1.3-6.2c0-.1,0-.3-.2-.3h-8c-.2,0-.3-.1-.3-.3,0,0,0-.1,0-.2l7.5-3.7c1.3-.5,2.2-1.6,2.4-3l1.1-5.3C82.2,1.6,81.7,0,79.5,0h-16.3c-1.8,0-3.4,1.4-3.6,3.2l-1.1,5c0,.1,0,.3.2.3h6.7c0,0,.2-.1.3-.2l.5-1.7c0,0,0-.2.3-.2h7.2c.2,0,.3.1.3.3h0c0,0-.3.8-.3.8,0,0,0,0,0,.2l-16.4,9.3c0,0,0,.1,0,.2l-1.3,4.9c0,.1,0,.3.2.3h21.4Z"/>
          <path class="cls-5" d="M83.8,0c-.1,0-.2,0-.2.2l-2.6,11.7c-.1.5,0,1,.4,1.3.2.2.6.4,1.1.4h11.1l-.5,2.2h-11.5c-.4,0-.7.1-1,.3-.3.2-.6.6-.7.9l-1.1,5c0,0,0,.1,0,.1,0,0,.1,0,.2,0h17.6c1.9,0,2.7-.4,3.1-2.4,0,0,1.8-8.4,2.1-9.8s-.3-2-1.9-2h-10.6l.4-1.7h12.8c0,0,.2,0,.2-.2l1.3-6.2h0c0-.1,0-.2-.2-.2h-20.1"/>
        </g>
      </g>
    </g>
  </g>
</svg>